<?xml version="1.0" standalone="no"?>
 <!DOCTYPE svg PUBLIC "-//W3C//DTD SVG 1.1//EN" 
 "http://www.w3.org/Graphics/SVG/1.1/DTD/svg11.dtd"> 
<svg
  xmlns:svg="http://www.w3.org/2000/svg"
  xmlns="http://www.w3.org/2000/svg"
  xmlns:xlink="http://www.w3.org/1999/xlink"
  version="1.1"
  width="29.700220cm" height="21.000720cm" viewBox="0 0 116930 82680">
<title>SVG Picture created as LEDgrid-F_SilkS.svg date 2021/12/15 11:30:33 </title>
  <desc>Picture generated by PCBNEW </desc>
<g style="fill:#000000; fill-opacity:1;stroke:#000000; stroke-opacity:1;
stroke-linecap:round; stroke-linejoin:round;"
 transform="translate(0 0) scale(1 1)">
</g>
<g style="fill:#000000; fill-opacity:0.0; 
stroke:#000000; stroke-width:-0.000393701; stroke-opacity:1; 
stroke-linecap:round; stroke-linejoin:round;">
</g>
<g style="fill:#000000; fill-opacity:0.0; 
stroke:#000000; stroke-width:47.2441; stroke-opacity:1; 
stroke-linecap:round; stroke-linejoin:round;">
<path d="M67523 38000
L67523 38523
" />
<path d="M67523 38523
L67000 38523
" />
<path d="M66500 38523
L61476 38523
" />
<path d="M61476 37476
L61476 38523
" />
<path d="M66500 37476
L61476 37476
" />
<path d="M66500 37476
L66500 38523
" />
<path d="M60023 38000
L60023 38523
" />
<path d="M60023 38523
L59500 38523
" />
<path d="M59000 38523
L53976 38523
" />
<path d="M53976 37476
L53976 38523
" />
<path d="M59000 37476
L53976 37476
" />
<path d="M59000 37476
L59000 38523
" />
<path d="M52523 38000
L52523 38523
" />
<path d="M52523 38523
L52000 38523
" />
<path d="M51500 38523
L46476 38523
" />
<path d="M46476 37476
L46476 38523
" />
<path d="M51500 37476
L46476 37476
" />
<path d="M51500 37476
L51500 38523
" />
<path d="M45023 38000
L45023 38523
" />
<path d="M45023 38523
L44500 38523
" />
<path d="M44000 38523
L38976 38523
" />
<path d="M38976 37476
L38976 38523
" />
<path d="M44000 37476
L38976 37476
" />
<path d="M44000 37476
L44000 38523
" />
<path d="M56271 32287
L56271 31692
" />
<path d="M57728 32287
L57728 31692
" />
<path d="M59015 31692
L54984 31692
" />
<path d="M54984 32287
L54984 30460
" />
<path d="M59015 32287
L59015 30460
" />
<path d="M59015 30460
L54984 30460
" />
<path d="M59015 32287
L54984 32287
" />
<path d="M67000 50590
L67000 50287
" />
<path d="M67000 47409
L67000 47712
" />
<path d="M67539 50287
L67539 47712
" />
<path d="M66460 50287
L67539 50287
" />
<path d="M66460 47712
L66460 50287
" />
<path d="M67539 47712
L66460 47712
" />
<path d="M66000 25409
L66000 25712
" />
<path d="M66000 28590
L66000 28287
" />
<path d="M65460 25712
L65460 28287
" />
<path d="M66539 25712
L65460 25712
" />
<path d="M66539 28287
L66539 25712
" />
<path d="M65460 28287
L66539 28287
" />
<path d="M65000 40409
L65000 40712
" />
<path d="M65000 43590
L65000 43287
" />
<path d="M64460 40712
L64460 43287
" />
<path d="M65539 40712
L64460 40712
" />
<path d="M65539 43287
L65539 40712
" />
<path d="M64460 43287
L65539 43287
" />
<path d="M68000 35590
L68000 35287
" />
<path d="M68000 32409
L68000 32712
" />
<path d="M68539 35287
L68539 32712
" />
<path d="M67460 35287
L68539 35287
" />
<path d="M67460 32712
L67460 35287
" />
<path d="M68539 32712
L67460 32712
" />
<path d="M62000 50590
L62000 50287
" />
<path d="M62000 47409
L62000 47712
" />
<path d="M62539 50287
L62539 47712
" />
<path d="M61460 50287
L62539 50287
" />
<path d="M61460 47712
L61460 50287
" />
<path d="M62539 47712
L61460 47712
" />
<path d="M61000 25409
L61000 25712
" />
<path d="M61000 28590
L61000 28287
" />
<path d="M60460 25712
L60460 28287
" />
<path d="M61539 25712
L60460 25712
" />
<path d="M61539 28287
L61539 25712
" />
<path d="M60460 28287
L61539 28287
" />
<path d="M60000 40409
L60000 40712
" />
<path d="M60000 43590
L60000 43287
" />
<path d="M59460 40712
L59460 43287
" />
<path d="M60539 40712
L59460 40712
" />
<path d="M60539 43287
L60539 40712
" />
<path d="M59460 43287
L60539 43287
" />
<path d="M63000 35590
L63000 35287
" />
<path d="M63000 32409
L63000 32712
" />
<path d="M63539 35287
L63539 32712
" />
<path d="M62460 35287
L63539 35287
" />
<path d="M62460 32712
L62460 35287
" />
<path d="M63539 32712
L62460 32712
" />
<path d="M57000 50590
L57000 50287
" />
<path d="M57000 47409
L57000 47712
" />
<path d="M57539 50287
L57539 47712
" />
<path d="M56460 50287
L57539 50287
" />
<path d="M56460 47712
L56460 50287
" />
<path d="M57539 47712
L56460 47712
" />
<path d="M56000 25409
L56000 25712
" />
<path d="M56000 28590
L56000 28287
" />
<path d="M55460 25712
L55460 28287
" />
<path d="M56539 25712
L55460 25712
" />
<path d="M56539 28287
L56539 25712
" />
<path d="M55460 28287
L56539 28287
" />
<path d="M55000 40409
L55000 40712
" />
<path d="M55000 43590
L55000 43287
" />
<path d="M54460 40712
L54460 43287
" />
<path d="M55539 40712
L54460 40712
" />
<path d="M55539 43287
L55539 40712
" />
<path d="M54460 43287
L55539 43287
" />
<path d="M58000 35590
L58000 35287
" />
<path d="M58000 32409
L58000 32712
" />
<path d="M58539 35287
L58539 32712
" />
<path d="M57460 35287
L58539 35287
" />
<path d="M57460 32712
L57460 35287
" />
<path d="M58539 32712
L57460 32712
" />
<path d="M52000 50590
L52000 50287
" />
<path d="M52000 47409
L52000 47712
" />
<path d="M52539 50287
L52539 47712
" />
<path d="M51460 50287
L52539 50287
" />
<path d="M51460 47712
L51460 50287
" />
<path d="M52539 47712
L51460 47712
" />
<path d="M51000 25409
L51000 25712
" />
<path d="M51000 28590
L51000 28287
" />
<path d="M50460 25712
L50460 28287
" />
<path d="M51539 25712
L50460 25712
" />
<path d="M51539 28287
L51539 25712
" />
<path d="M50460 28287
L51539 28287
" />
<path d="M50000 40409
L50000 40712
" />
<path d="M50000 43590
L50000 43287
" />
<path d="M49460 40712
L49460 43287
" />
<path d="M50539 40712
L49460 40712
" />
<path d="M50539 43287
L50539 40712
" />
<path d="M49460 43287
L50539 43287
" />
<path d="M53000 35590
L53000 35287
" />
<path d="M53000 32409
L53000 32712
" />
<path d="M53539 35287
L53539 32712
" />
<path d="M52460 35287
L53539 35287
" />
<path d="M52460 32712
L52460 35287
" />
<path d="M53539 32712
L52460 32712
" />
<path d="M47000 50590
L47000 50287
" />
<path d="M47000 47409
L47000 47712
" />
<path d="M47539 50287
L47539 47712
" />
<path d="M46460 50287
L47539 50287
" />
<path d="M46460 47712
L46460 50287
" />
<path d="M47539 47712
L46460 47712
" />
<path d="M46000 25409
L46000 25712
" />
<path d="M46000 28590
L46000 28287
" />
<path d="M45460 25712
L45460 28287
" />
<path d="M46539 25712
L45460 25712
" />
<path d="M46539 28287
L46539 25712
" />
<path d="M45460 28287
L46539 28287
" />
<path d="M45000 40409
L45000 40712
" />
<path d="M45000 43590
L45000 43287
" />
<path d="M44460 40712
L44460 43287
" />
<path d="M45539 40712
L44460 40712
" />
<path d="M45539 43287
L45539 40712
" />
<path d="M44460 43287
L45539 43287
" />
<path d="M48000 35590
L48000 35287
" />
<path d="M48000 32409
L48000 32712
" />
<path d="M48539 35287
L48539 32712
" />
<path d="M47460 35287
L48539 35287
" />
<path d="M47460 32712
L47460 35287
" />
<path d="M48539 32712
L47460 32712
" />
<path d="M42000 50590
L42000 50287
" />
<path d="M42000 47409
L42000 47712
" />
<path d="M42539 50287
L42539 47712
" />
<path d="M41460 50287
L42539 50287
" />
<path d="M41460 47712
L41460 50287
" />
<path d="M42539 47712
L41460 47712
" />
<path d="M41000 25409
L41000 25712
" />
<path d="M41000 28590
L41000 28287
" />
<path d="M40460 25712
L40460 28287
" />
<path d="M41539 25712
L40460 25712
" />
<path d="M41539 28287
L41539 25712
" />
<path d="M40460 28287
L41539 28287
" />
<path d="M40000 40409
L40000 40712
" />
<path d="M40000 43590
L40000 43287
" />
<path d="M39460 40712
L39460 43287
" />
<path d="M40539 40712
L39460 40712
" />
<path d="M40539 43287
L40539 40712
" />
<path d="M39460 43287
L40539 43287
" />
<path d="M43000 35590
L43000 35287
" />
<path d="M43000 32409
L43000 32712
" />
<path d="M43539 35287
L43539 32712
" />
<path d="M42460 35287
L43539 35287
" />
<path d="M42460 32712
L42460 35287
" />
<path d="M43539 32712
L42460 32712
" />
<path d="M66728 43712
L66728 44307
" />
<path d="M65271 43712
L65271 44307
" />
<path d="M63984 44307
L68015 44307
" />
<path d="M68015 43712
L68015 45539
" />
<path d="M63984 43712
L63984 45539
" />
<path d="M63984 45539
L68015 45539
" />
<path d="M63984 43712
L68015 43712
" />
<path d="M66271 32287
L66271 31692
" />
<path d="M67728 32287
L67728 31692
" />
<path d="M69015 31692
L64984 31692
" />
<path d="M64984 32287
L64984 30460
" />
<path d="M69015 32287
L69015 30460
" />
<path d="M69015 30460
L64984 30460
" />
<path d="M69015 32287
L64984 32287
" />
<path d="M67708 45271
L66291 45271
" />
<path d="M66291.3 45271.7 A1016.21 1016.21 0.0 0 0 66085 45558" />
<path d="M66072.3 46432.6 A1023.62 1023.62 0.0 0 0 67000 47023.6" />
<path d="M67000 47023.6 A1023.62 1023.62 0.0 0 0 67927.7 46432.6" />
<path d="M67915 45558 A1016.21 1016.21 0.0 0 0 67708.7 45271.7" />
<path d="M65291 30728
L66708 30728
" />
<path d="M66708.7 30728.3 A1016.21 1016.21 0.0 0 0 66915 30442" />
<path d="M66927.7 29567.4 A1023.62 1023.62 0.0 0 0 66000 28976.4" />
<path d="M66000 28976.4 A1023.62 1023.62 0.0 0 0 65072.3 29567.4" />
<path d="M65085 30442 A1016.21 1016.21 0.0 0 0 65291.3 30728.3" />
<path d="M61728 43712
L61728 44307
" />
<path d="M60271 43712
L60271 44307
" />
<path d="M58984 44307
L63015 44307
" />
<path d="M63015 43712
L63015 45539
" />
<path d="M58984 43712
L58984 45539
" />
<path d="M58984 45539
L63015 45539
" />
<path d="M58984 43712
L63015 43712
" />
<path d="M61271 32287
L61271 31692
" />
<path d="M62728 32287
L62728 31692
" />
<path d="M64015 31692
L59984 31692
" />
<path d="M59984 32287
L59984 30460
" />
<path d="M64015 32287
L64015 30460
" />
<path d="M64015 30460
L59984 30460
" />
<path d="M64015 32287
L59984 32287
" />
<path d="M62708 45271
L61291 45271
" />
<path d="M61291.3 45271.7 A1016.21 1016.21 0.0 0 0 61085 45558" />
<path d="M61072.3 46432.6 A1023.62 1023.62 0.0 0 0 62000 47023.6" />
<path d="M62000 47023.6 A1023.62 1023.62 0.0 0 0 62927.7 46432.6" />
<path d="M62915 45558 A1016.21 1016.21 0.0 0 0 62708.7 45271.7" />
<path d="M60291 30728
L61708 30728
" />
<path d="M61708.7 30728.3 A1016.21 1016.21 0.0 0 0 61915 30442" />
<path d="M61927.7 29567.4 A1023.62 1023.62 0.0 0 0 61000 28976.4" />
<path d="M61000 28976.4 A1023.62 1023.62 0.0 0 0 60072.3 29567.4" />
<path d="M60085 30442 A1016.21 1016.21 0.0 0 0 60291.3 30728.3" />
<path d="M56728 43712
L56728 44307
" />
<path d="M55271 43712
L55271 44307
" />
<path d="M53984 44307
L58015 44307
" />
<path d="M58015 43712
L58015 45539
" />
<path d="M53984 43712
L53984 45539
" />
<path d="M53984 45539
L58015 45539
" />
<path d="M53984 43712
L58015 43712
" />
<path d="M57708 45271
L56291 45271
" />
<path d="M56291.3 45271.7 A1016.21 1016.21 0.0 0 0 56085 45558" />
<path d="M56072.3 46432.6 A1023.62 1023.62 0.0 0 0 57000 47023.6" />
<path d="M57000 47023.6 A1023.62 1023.62 0.0 0 0 57927.7 46432.6" />
<path d="M57915 45558 A1016.21 1016.21 0.0 0 0 57708.7 45271.7" />
<path d="M55291 30728
L56708 30728
" />
<path d="M56708.7 30728.3 A1016.21 1016.21 0.0 0 0 56915 30442" />
<path d="M56927.7 29567.4 A1023.62 1023.62 0.0 0 0 56000 28976.4" />
<path d="M56000 28976.4 A1023.62 1023.62 0.0 0 0 55072.3 29567.4" />
<path d="M55085 30442 A1016.21 1016.21 0.0 0 0 55291.3 30728.3" />
<path d="M51728 43712
L51728 44307
" />
<path d="M50271 43712
L50271 44307
" />
<path d="M48984 44307
L53015 44307
" />
<path d="M53015 43712
L53015 45539
" />
<path d="M48984 43712
L48984 45539
" />
<path d="M48984 45539
L53015 45539
" />
<path d="M48984 43712
L53015 43712
" />
<path d="M51271 32287
L51271 31692
" />
<path d="M52728 32287
L52728 31692
" />
<path d="M54015 31692
L49984 31692
" />
<path d="M49984 32287
L49984 30460
" />
<path d="M54015 32287
L54015 30460
" />
<path d="M54015 30460
L49984 30460
" />
<path d="M54015 32287
L49984 32287
" />
<path d="M52708 45271
L51291 45271
" />
<path d="M51291.3 45271.7 A1016.21 1016.21 0.0 0 0 51085 45558" />
<path d="M51072.3 46432.6 A1023.62 1023.62 0.0 0 0 52000 47023.6" />
<path d="M52000 47023.6 A1023.62 1023.62 0.0 0 0 52927.7 46432.6" />
<path d="M52915 45558 A1016.21 1016.21 0.0 0 0 52708.7 45271.7" />
<path d="M50291 30728
L51708 30728
" />
<path d="M51708.7 30728.3 A1016.21 1016.21 0.0 0 0 51915 30442" />
<path d="M51927.7 29567.4 A1023.62 1023.62 0.0 0 0 51000 28976.4" />
<path d="M51000 28976.4 A1023.62 1023.62 0.0 0 0 50072.3 29567.4" />
<path d="M50085 30442 A1016.21 1016.21 0.0 0 0 50291.3 30728.3" />
<path d="M46728 43712
L46728 44307
" />
<path d="M45271 43712
L45271 44307
" />
<path d="M43984 44307
L48015 44307
" />
<path d="M48015 43712
L48015 45539
" />
<path d="M43984 43712
L43984 45539
" />
<path d="M43984 45539
L48015 45539
" />
<path d="M43984 43712
L48015 43712
" />
<path d="M46271 32287
L46271 31692
" />
<path d="M47728 32287
L47728 31692
" />
<path d="M49015 31692
L44984 31692
" />
<path d="M44984 32287
L44984 30460
" />
<path d="M49015 32287
L49015 30460
" />
<path d="M49015 30460
L44984 30460
" />
<path d="M49015 32287
L44984 32287
" />
<path d="M47708 45271
L46291 45271
" />
<path d="M46291.3 45271.7 A1016.21 1016.21 0.0 0 0 46085 45558" />
<path d="M46072.3 46432.6 A1023.62 1023.62 0.0 0 0 47000 47023.6" />
<path d="M47000 47023.6 A1023.62 1023.62 0.0 0 0 47927.7 46432.6" />
<path d="M47915 45558 A1016.21 1016.21 0.0 0 0 47708.7 45271.7" />
<path d="M45291 30728
L46708 30728
" />
<path d="M46708.7 30728.3 A1016.21 1016.21 0.0 0 0 46915 30442" />
<path d="M46927.7 29567.4 A1023.62 1023.62 0.0 0 0 46000 28976.4" />
<path d="M46000 28976.4 A1023.62 1023.62 0.0 0 0 45072.3 29567.4" />
<path d="M45085 30442 A1016.21 1016.21 0.0 0 0 45291.3 30728.3" />
<path d="M41728 43712
L41728 44307
" />
<path d="M40271 43712
L40271 44307
" />
<path d="M38984 44307
L43015 44307
" />
<path d="M43015 43712
L43015 45539
" />
<path d="M38984 43712
L38984 45539
" />
<path d="M38984 45539
L43015 45539
" />
<path d="M38984 43712
L43015 43712
" />
<path d="M41271 32287
L41271 31692
" />
<path d="M42728 32287
L42728 31692
" />
<path d="M44015 31692
L39984 31692
" />
<path d="M39984 32287
L39984 30460
" />
<path d="M44015 32287
L44015 30460
" />
<path d="M44015 30460
L39984 30460
" />
<path d="M44015 32287
L39984 32287
" />
<path d="M42708 45271
L41291 45271
" />
<path d="M41291.3 45271.7 A1016.21 1016.21 0.0 0 0 41085 45558" />
<path d="M41072.3 46432.6 A1023.62 1023.62 0.0 0 0 42000 47023.6" />
<path d="M42000 47023.6 A1023.62 1023.62 0.0 0 0 42927.7 46432.6" />
<path d="M42915 45558 A1016.21 1016.21 0.0 0 0 42708.7 45271.7" />
<path d="M40291 30728
L41708 30728
" />
<path d="M41708.7 30728.3 A1016.21 1016.21 0.0 0 0 41915 30442" />
<path d="M41927.7 29567.4 A1023.62 1023.62 0.0 0 0 41000 28976.4" />
<path d="M41000 28976.4 A1023.62 1023.62 0.0 0 0 40072.3 29567.4" />
<path d="M40085 30442 A1016.21 1016.21 0.0 0 0 40291.3 30728.3" />
<path d="M70000 44476
L70523 44476
" />
<path d="M70523 44476
L70523 45000
" />
<path d="M70523 45500
L70523 48523
" />
<path d="M69476 48523
L70523 48523
" />
<path d="M69476 45500
L69476 48523
" />
<path d="M69476 45500
L70523 45500
" />
<path d="M67795 38881
L67795 39118
" />
<path d="M68125 38881
L67795 38881
" />
<path d="M71988 42492
L71791 42492
" />
<path d="M71988 41507
L71791 41507
" />
<path d="M71791 41507
L71791 42492
" />
<path d="M71988 41507
L71988 42492
" />
<path d="M69615 41535
L69579 41498
" />
<path d="M70501 42421
L70478 42398
" />
<path d="M69521 41602
L69498 41579
" />
<path d="M70420 42501
L70384 42464
" />
<path d="M71988 40492
L71791 40492
" />
<path d="M71988 39507
L71791 39507
" />
<path d="M71791 39507
L71791 40492
" />
<path d="M71988 39507
L71988 40492
" />
<path d="M72110 43023
L67889 43023
" />
<path d="M72110 38976
L67889 38976
" />
<path d="M67889 38976
L67889 43023
" />
<path d="M72110 38976
L72110 43023
" />
<path d="M71299 38976
L71299 43023
" />
<path d="M69015 38976
L69015 43023
" />
<path d="M68149 38976
L68149 43023
" />
<circle cx="70000" cy="42000" r="661.417" /> 
<path d="M69415.7 39689.4 A661.696 661.696 0.0 0 0 69338.4 40011.6" />
<path d="M70310.6 39415.7 A661.696 661.696 0.0 0 0 69689.3 39415.8" />
<path d="M70584.3 40310.6 A661.696 661.696 0.0 0 0 70584.2 39689.3" />
<path d="M69689.4 40584.3 A661.696 661.696 0.0 0 0 70310.7 40584.2" />
<path d="M69338.6 40000 A661.417 661.417 0.0 0 0 69416 40310.5" />
</g>
<g style="fill:#000000; fill-opacity:0.0; 
stroke:#000000; stroke-width:59.0551; stroke-opacity:1; 
stroke-linecap:round; stroke-linejoin:round;">
<g transform="rotate(-90 68090.6 38000)">
<text x="68090.6" y="38196.9"
textLength="674.916" font-size="524.934" lengthAdjust="spacingAndGlyphs"
text-anchor="middle" opacity="0">J6</text>
</g>
<path d="M67874 38131
L68156 38131
L68212 38149
L68249 38187
L68268 38243
L68268 38281
" />
<path d="M67874 37775
L67874 37850
L67893 37887
L67912 37906
L67968 37943
L68043 37962
L68193 37962
L68231 37943
L68249 37925
L68268 37887
L68268 37812
L68249 37775
L68231 37756
L68193 37737
L68099 37737
L68062 37756
L68043 37775
L68024 37812
L68024 37887
L68043 37925
L68062 37943
L68099 37962
" />
<g transform="rotate(-90 60590.6 38000)">
<text x="60590.6" y="38196.9"
textLength="751.687" font-size="524.934" lengthAdjust="spacingAndGlyphs"
text-anchor="middle" opacity="0">J5</text>
</g>
<path d="M60374 38131
L60656 38131
L60712 38149
L60749 38187
L60768 38243
L60768 38281
" />
<path d="M60374 37756
L60374 37943
L60562 37962
L60543 37943
L60524 37906
L60524 37812
L60543 37775
L60562 37756
L60599 37737
L60693 37737
L60731 37756
L60749 37775
L60768 37812
L60768 37906
L60749 37943
L60731 37962
" />
<g transform="rotate(-90 53090.6 38000)">
<text x="53090.6" y="38196.9"
textLength="751.687" font-size="524.934" lengthAdjust="spacingAndGlyphs"
text-anchor="middle" opacity="0">J4</text>
</g>
<path d="M52874 38131
L53156 38131
L53212 38149
L53249 38187
L53268 38243
L53268 38281
" />
<path d="M53006 37775
L53268 37775
" />
<path d="M52856 37868
L53137 37962
L53137 37718
" />
<g transform="rotate(-90 45590.6 38000)">
<text x="45590.6" y="38196.9"
textLength="751.687" font-size="524.934" lengthAdjust="spacingAndGlyphs"
text-anchor="middle" opacity="0">J3</text>
</g>
<path d="M45374 38131
L45656 38131
L45712 38149
L45749 38187
L45768 38243
L45768 38281
" />
<path d="M45374 37981
L45374 37737
L45524 37868
L45524 37812
L45543 37775
L45562 37756
L45599 37737
L45693 37737
L45731 37756
L45749 37775
L45768 37812
L45768 37925
L45749 37962
L45731 37981
" />
<text x="57000" y="32878"
textLength="1239.13" font-size="524.934" lengthAdjust="spacingAndGlyphs"
text-anchor="middle" opacity="0">Q15</text>
<path d="M56775 32896
L56737 32877
L56700 32840
L56643 32784
L56606 32765
L56568 32765
" />
<path d="M56587 32859
L56550 32840
L56512 32802
L56493 32727
L56493 32596
L56512 32521
L56550 32484
L56587 32465
L56662 32465
L56700 32484
L56737 32521
L56756 32596
L56756 32727
L56737 32802
L56700 32840
L56662 32859
L56587 32859
" />
<path d="M57131 32859
L56906 32859
" />
<path d="M57018 32859
L57018 32465
L56981 32521
L56943 32559
L56906 32577
" />
<path d="M57487 32465
L57299 32465
L57281 32652
L57299 32634
L57337 32615
L57431 32615
L57468 32634
L57487 32652
L57506 32690
L57506 32784
L57487 32821
L57468 32840
L57431 32859
L57337 32859
L57299 32840
L57281 32821
" />
<g transform="rotate(-90 67933.1 49000)">
<text x="67933.1" y="49196.9"
textLength="1220.38" font-size="524.934" lengthAdjust="spacingAndGlyphs"
text-anchor="middle" opacity="0">R24</text>
</g>
<path d="M68111 49253
L67923 49384
" />
<path d="M68111 49478
L67717 49478
L67717 49328
L67736 49290
L67754 49271
L67792 49253
L67848 49253
L67886 49271
L67904 49290
L67923 49328
L67923 49478
" />
<path d="M67754 49103
L67736 49084
L67717 49046
L67717 48953
L67736 48915
L67754 48896
L67792 48878
L67829 48878
L67886 48896
L68111 49121
L68111 48878
" />
<path d="M67848 48540
L68111 48540
" />
<path d="M67698 48634
L67979 48728
L67979 48484
" />
<g transform="rotate(-90 65066.9 27000)">
<text x="65066.9" y="27196.9"
textLength="1220.38" font-size="524.934" lengthAdjust="spacingAndGlyphs"
text-anchor="middle" opacity="0">R23</text>
</g>
<path d="M65245 27253
L65057 27384
" />
<path d="M65245 27478
L64851 27478
L64851 27328
L64870 27290
L64888 27271
L64926 27253
L64982 27253
L65020 27271
L65038 27290
L65057 27328
L65057 27478
" />
<path d="M64888 27103
L64870 27084
L64851 27046
L64851 26953
L64870 26915
L64888 26896
L64926 26878
L64963 26878
L65020 26896
L65245 27121
L65245 26878
" />
<path d="M64851 26746
L64851 26503
L65001 26634
L65001 26578
L65020 26540
L65038 26521
L65076 26503
L65170 26503
L65207 26521
L65226 26540
L65245 26578
L65245 26690
L65226 26728
L65207 26746
" />
<g transform="rotate(-90 64066.9 42000)">
<text x="64066.9" y="42196.9"
textLength="1220.38" font-size="524.934" lengthAdjust="spacingAndGlyphs"
text-anchor="middle" opacity="0">R22</text>
</g>
<path d="M64245 42253
L64057 42384
" />
<path d="M64245 42478
L63851 42478
L63851 42328
L63870 42290
L63888 42271
L63926 42253
L63982 42253
L64020 42271
L64038 42290
L64057 42328
L64057 42478
" />
<path d="M63888 42103
L63870 42084
L63851 42046
L63851 41953
L63870 41915
L63888 41896
L63926 41878
L63963 41878
L64020 41896
L64245 42121
L64245 41878
" />
<path d="M63888 41728
L63870 41709
L63851 41671
L63851 41578
L63870 41540
L63888 41521
L63926 41503
L63963 41503
L64020 41521
L64245 41746
L64245 41503
" />
<g transform="rotate(-90 68933.1 34000)">
<text x="68933.1" y="34196.9"
textLength="1220.38" font-size="524.934" lengthAdjust="spacingAndGlyphs"
text-anchor="middle" opacity="0">R21</text>
</g>
<path d="M69111 34253
L68923 34384
" />
<path d="M69111 34478
L68717 34478
L68717 34328
L68736 34290
L68754 34271
L68792 34253
L68848 34253
L68886 34271
L68904 34290
L68923 34328
L68923 34478
" />
<path d="M68754 34103
L68736 34084
L68717 34046
L68717 33953
L68736 33915
L68754 33896
L68792 33878
L68829 33878
L68886 33896
L69111 34121
L69111 33878
" />
<path d="M69111 33503
L69111 33728
" />
<path d="M69111 33615
L68717 33615
L68773 33653
L68811 33690
L68829 33728
" />
<g transform="rotate(-90 62933.1 49000)">
<text x="62933.1" y="49196.9"
textLength="1220.38" font-size="524.934" lengthAdjust="spacingAndGlyphs"
text-anchor="middle" opacity="0">R20</text>
</g>
<path d="M63111 49253
L62923 49384
" />
<path d="M63111 49478
L62717 49478
L62717 49328
L62736 49290
L62754 49271
L62792 49253
L62848 49253
L62886 49271
L62904 49290
L62923 49328
L62923 49478
" />
<path d="M62754 49103
L62736 49084
L62717 49046
L62717 48953
L62736 48915
L62754 48896
L62792 48878
L62829 48878
L62886 48896
L63111 49121
L63111 48878
" />
<path d="M62717 48634
L62717 48596
L62736 48559
L62754 48540
L62792 48521
L62867 48503
L62961 48503
L63036 48521
L63073 48540
L63092 48559
L63111 48596
L63111 48634
L63092 48671
L63073 48690
L63036 48709
L62961 48728
L62867 48728
L62792 48709
L62754 48690
L62736 48671
L62717 48634
" />
<g transform="rotate(-90 60066.9 27000)">
<text x="60066.9" y="27196.9"
textLength="1220.38" font-size="524.934" lengthAdjust="spacingAndGlyphs"
text-anchor="middle" opacity="0">R19</text>
</g>
<path d="M60245 27253
L60057 27384
" />
<path d="M60245 27478
L59851 27478
L59851 27328
L59870 27290
L59888 27271
L59926 27253
L59982 27253
L60020 27271
L60038 27290
L60057 27328
L60057 27478
" />
<path d="M60245 26878
L60245 27103
" />
<path d="M60245 26990
L59851 26990
L59907 27028
L59945 27065
L59963 27103
" />
<path d="M60245 26690
L60245 26615
L60226 26578
L60207 26559
L60151 26521
L60076 26503
L59926 26503
L59888 26521
L59870 26540
L59851 26578
L59851 26653
L59870 26690
L59888 26709
L59926 26728
L60020 26728
L60057 26709
L60076 26690
L60095 26653
L60095 26578
L60076 26540
L60057 26521
L60020 26503
" />
<g transform="rotate(-90 59066.9 42000)">
<text x="59066.9" y="42196.9"
textLength="1220.38" font-size="524.934" lengthAdjust="spacingAndGlyphs"
text-anchor="middle" opacity="0">R18</text>
</g>
<path d="M59245 42253
L59057 42384
" />
<path d="M59245 42478
L58851 42478
L58851 42328
L58870 42290
L58888 42271
L58926 42253
L58982 42253
L59020 42271
L59038 42290
L59057 42328
L59057 42478
" />
<path d="M59245 41878
L59245 42103
" />
<path d="M59245 41990
L58851 41990
L58907 42028
L58945 42065
L58963 42103
" />
<path d="M59020 41653
L59001 41690
L58982 41709
L58945 41728
L58926 41728
L58888 41709
L58870 41690
L58851 41653
L58851 41578
L58870 41540
L58888 41521
L58926 41503
L58945 41503
L58982 41521
L59001 41540
L59020 41578
L59020 41653
L59038 41690
L59057 41709
L59095 41728
L59170 41728
L59207 41709
L59226 41690
L59245 41653
L59245 41578
L59226 41540
L59207 41521
L59170 41503
L59095 41503
L59057 41521
L59038 41540
L59020 41578
" />
<g transform="rotate(-90 63933.1 34000)">
<text x="63933.1" y="34196.9"
textLength="1220.38" font-size="524.934" lengthAdjust="spacingAndGlyphs"
text-anchor="middle" opacity="0">R17</text>
</g>
<path d="M64111 34253
L63923 34384
" />
<path d="M64111 34478
L63717 34478
L63717 34328
L63736 34290
L63754 34271
L63792 34253
L63848 34253
L63886 34271
L63904 34290
L63923 34328
L63923 34478
" />
<path d="M64111 33878
L64111 34103
" />
<path d="M64111 33990
L63717 33990
L63773 34028
L63811 34065
L63829 34103
" />
<path d="M63717 33746
L63717 33484
L64111 33653
" />
<g transform="rotate(-90 57933.1 49000)">
<text x="57933.1" y="49196.9"
textLength="1220.38" font-size="524.934" lengthAdjust="spacingAndGlyphs"
text-anchor="middle" opacity="0">R16</text>
</g>
<path d="M58111 49253
L57923 49384
" />
<path d="M58111 49478
L57717 49478
L57717 49328
L57736 49290
L57754 49271
L57792 49253
L57848 49253
L57886 49271
L57904 49290
L57923 49328
L57923 49478
" />
<path d="M58111 48878
L58111 49103
" />
<path d="M58111 48990
L57717 48990
L57773 49028
L57811 49065
L57829 49103
" />
<path d="M57717 48540
L57717 48615
L57736 48653
L57754 48671
L57811 48709
L57886 48728
L58036 48728
L58073 48709
L58092 48690
L58111 48653
L58111 48578
L58092 48540
L58073 48521
L58036 48503
L57942 48503
L57904 48521
L57886 48540
L57867 48578
L57867 48653
L57886 48690
L57904 48709
L57942 48728
" />
<g transform="rotate(-90 55066.9 27000)">
<text x="55066.9" y="27196.9"
textLength="1220.38" font-size="524.934" lengthAdjust="spacingAndGlyphs"
text-anchor="middle" opacity="0">R15</text>
</g>
<path d="M55245 27253
L55057 27384
" />
<path d="M55245 27478
L54851 27478
L54851 27328
L54870 27290
L54888 27271
L54926 27253
L54982 27253
L55020 27271
L55038 27290
L55057 27328
L55057 27478
" />
<path d="M55245 26878
L55245 27103
" />
<path d="M55245 26990
L54851 26990
L54907 27028
L54945 27065
L54963 27103
" />
<path d="M54851 26521
L54851 26709
L55038 26728
L55020 26709
L55001 26671
L55001 26578
L55020 26540
L55038 26521
L55076 26503
L55170 26503
L55207 26521
L55226 26540
L55245 26578
L55245 26671
L55226 26709
L55207 26728
" />
<g transform="rotate(-90 54066.9 42000)">
<text x="54066.9" y="42196.9"
textLength="1220.38" font-size="524.934" lengthAdjust="spacingAndGlyphs"
text-anchor="middle" opacity="0">R14</text>
</g>
<path d="M54245 42253
L54057 42384
" />
<path d="M54245 42478
L53851 42478
L53851 42328
L53870 42290
L53888 42271
L53926 42253
L53982 42253
L54020 42271
L54038 42290
L54057 42328
L54057 42478
" />
<path d="M54245 41878
L54245 42103
" />
<path d="M54245 41990
L53851 41990
L53907 42028
L53945 42065
L53963 42103
" />
<path d="M53982 41540
L54245 41540
" />
<path d="M53832 41634
L54113 41728
L54113 41484
" />
<g transform="rotate(-90 58933.1 34000)">
<text x="58933.1" y="34196.9"
textLength="1220.38" font-size="524.934" lengthAdjust="spacingAndGlyphs"
text-anchor="middle" opacity="0">R13</text>
</g>
<path d="M59111 34253
L58923 34384
" />
<path d="M59111 34478
L58717 34478
L58717 34328
L58736 34290
L58754 34271
L58792 34253
L58848 34253
L58886 34271
L58904 34290
L58923 34328
L58923 34478
" />
<path d="M59111 33878
L59111 34103
" />
<path d="M59111 33990
L58717 33990
L58773 34028
L58811 34065
L58829 34103
" />
<path d="M58717 33746
L58717 33503
L58867 33634
L58867 33578
L58886 33540
L58904 33521
L58942 33503
L59036 33503
L59073 33521
L59092 33540
L59111 33578
L59111 33690
L59092 33728
L59073 33746
" />
<g transform="rotate(-90 52933.1 49000)">
<text x="52933.1" y="49196.9"
textLength="1220.38" font-size="524.934" lengthAdjust="spacingAndGlyphs"
text-anchor="middle" opacity="0">R12</text>
</g>
<path d="M53111 49253
L52923 49384
" />
<path d="M53111 49478
L52717 49478
L52717 49328
L52736 49290
L52754 49271
L52792 49253
L52848 49253
L52886 49271
L52904 49290
L52923 49328
L52923 49478
" />
<path d="M53111 48878
L53111 49103
" />
<path d="M53111 48990
L52717 48990
L52773 49028
L52811 49065
L52829 49103
" />
<path d="M52754 48728
L52736 48709
L52717 48671
L52717 48578
L52736 48540
L52754 48521
L52792 48503
L52829 48503
L52886 48521
L53111 48746
L53111 48503
" />
<g transform="rotate(-90 50066.9 27000)">
<text x="50066.9" y="27196.9"
textLength="1220.38" font-size="524.934" lengthAdjust="spacingAndGlyphs"
text-anchor="middle" opacity="0">R11</text>
</g>
<path d="M50245 27253
L50057 27384
" />
<path d="M50245 27478
L49851 27478
L49851 27328
L49870 27290
L49888 27271
L49926 27253
L49982 27253
L50020 27271
L50038 27290
L50057 27328
L50057 27478
" />
<path d="M50245 26878
L50245 27103
" />
<path d="M50245 26990
L49851 26990
L49907 27028
L49945 27065
L49963 27103
" />
<path d="M50245 26503
L50245 26728
" />
<path d="M50245 26615
L49851 26615
L49907 26653
L49945 26690
L49963 26728
" />
<g transform="rotate(-90 49066.9 42000)">
<text x="49066.9" y="42196.9"
textLength="1220.38" font-size="524.934" lengthAdjust="spacingAndGlyphs"
text-anchor="middle" opacity="0">R10</text>
</g>
<path d="M49245 42253
L49057 42384
" />
<path d="M49245 42478
L48851 42478
L48851 42328
L48870 42290
L48888 42271
L48926 42253
L48982 42253
L49020 42271
L49038 42290
L49057 42328
L49057 42478
" />
<path d="M49245 41878
L49245 42103
" />
<path d="M49245 41990
L48851 41990
L48907 42028
L48945 42065
L48963 42103
" />
<path d="M48851 41634
L48851 41596
L48870 41559
L48888 41540
L48926 41521
L49001 41503
L49095 41503
L49170 41521
L49207 41540
L49226 41559
L49245 41596
L49245 41634
L49226 41671
L49207 41690
L49170 41709
L49095 41728
L49001 41728
L48926 41709
L48888 41690
L48870 41671
L48851 41634
" />
<g transform="rotate(-90 53933.1 34000)">
<text x="53933.1" y="34196.9"
textLength="845.426" font-size="524.934" lengthAdjust="spacingAndGlyphs"
text-anchor="middle" opacity="0">R9</text>
</g>
<path d="M54111 34065
L53923 34196
" />
<path d="M54111 34290
L53717 34290
L53717 34140
L53736 34103
L53754 34084
L53792 34065
L53848 34065
L53886 34084
L53904 34103
L53923 34140
L53923 34290
" />
<path d="M54111 33878
L54111 33803
L54092 33765
L54073 33746
L54017 33709
L53942 33690
L53792 33690
L53754 33709
L53736 33728
L53717 33765
L53717 33840
L53736 33878
L53754 33896
L53792 33915
L53886 33915
L53923 33896
L53942 33878
L53961 33840
L53961 33765
L53942 33728
L53923 33709
L53886 33690
" />
<g transform="rotate(-90 47933.1 49000)">
<text x="47933.1" y="49196.9"
textLength="845.426" font-size="524.934" lengthAdjust="spacingAndGlyphs"
text-anchor="middle" opacity="0">R8</text>
</g>
<path d="M48111 49065
L47923 49196
" />
<path d="M48111 49290
L47717 49290
L47717 49140
L47736 49103
L47754 49084
L47792 49065
L47848 49065
L47886 49084
L47904 49103
L47923 49140
L47923 49290
" />
<path d="M47886 48840
L47867 48878
L47848 48896
L47811 48915
L47792 48915
L47754 48896
L47736 48878
L47717 48840
L47717 48765
L47736 48728
L47754 48709
L47792 48690
L47811 48690
L47848 48709
L47867 48728
L47886 48765
L47886 48840
L47904 48878
L47923 48896
L47961 48915
L48036 48915
L48073 48896
L48092 48878
L48111 48840
L48111 48765
L48092 48728
L48073 48709
L48036 48690
L47961 48690
L47923 48709
L47904 48728
L47886 48765
" />
<g transform="rotate(-90 45066.9 27000)">
<text x="45066.9" y="27196.9"
textLength="845.426" font-size="524.934" lengthAdjust="spacingAndGlyphs"
text-anchor="middle" opacity="0">R7</text>
</g>
<path d="M45245 27065
L45057 27196
" />
<path d="M45245 27290
L44851 27290
L44851 27140
L44870 27103
L44888 27084
L44926 27065
L44982 27065
L45020 27084
L45038 27103
L45057 27140
L45057 27290
" />
<path d="M44851 26934
L44851 26671
L45245 26840
" />
<g transform="rotate(-90 44066.9 42000)">
<text x="44066.9" y="42196.9"
textLength="845.426" font-size="524.934" lengthAdjust="spacingAndGlyphs"
text-anchor="middle" opacity="0">R6</text>
</g>
<path d="M44245 42065
L44057 42196
" />
<path d="M44245 42290
L43851 42290
L43851 42140
L43870 42103
L43888 42084
L43926 42065
L43982 42065
L44020 42084
L44038 42103
L44057 42140
L44057 42290
" />
<path d="M43851 41728
L43851 41803
L43870 41840
L43888 41859
L43945 41896
L44020 41915
L44170 41915
L44207 41896
L44226 41878
L44245 41840
L44245 41765
L44226 41728
L44207 41709
L44170 41690
L44076 41690
L44038 41709
L44020 41728
L44001 41765
L44001 41840
L44020 41878
L44038 41896
L44076 41915
" />
<g transform="rotate(-90 48933.1 34000)">
<text x="48933.1" y="34196.9"
textLength="845.426" font-size="524.934" lengthAdjust="spacingAndGlyphs"
text-anchor="middle" opacity="0">R5</text>
</g>
<path d="M49111 34065
L48923 34196
" />
<path d="M49111 34290
L48717 34290
L48717 34140
L48736 34103
L48754 34084
L48792 34065
L48848 34065
L48886 34084
L48904 34103
L48923 34140
L48923 34290
" />
<path d="M48717 33709
L48717 33896
L48904 33915
L48886 33896
L48867 33859
L48867 33765
L48886 33728
L48904 33709
L48942 33690
L49036 33690
L49073 33709
L49092 33728
L49111 33765
L49111 33859
L49092 33896
L49073 33915
" />
<g transform="rotate(-90 42933.1 49000)">
<text x="42933.1" y="49196.9"
textLength="845.426" font-size="524.934" lengthAdjust="spacingAndGlyphs"
text-anchor="middle" opacity="0">R4</text>
</g>
<path d="M43111 49065
L42923 49196
" />
<path d="M43111 49290
L42717 49290
L42717 49140
L42736 49103
L42754 49084
L42792 49065
L42848 49065
L42886 49084
L42904 49103
L42923 49140
L42923 49290
" />
<path d="M42848 48728
L43111 48728
" />
<path d="M42698 48821
L42979 48915
L42979 48671
" />
<g transform="rotate(-90 40066.9 27000)">
<text x="40066.9" y="27196.9"
textLength="845.426" font-size="524.934" lengthAdjust="spacingAndGlyphs"
text-anchor="middle" opacity="0">R3</text>
</g>
<path d="M40245 27065
L40057 27196
" />
<path d="M40245 27290
L39851 27290
L39851 27140
L39870 27103
L39888 27084
L39926 27065
L39982 27065
L40020 27084
L40038 27103
L40057 27140
L40057 27290
" />
<path d="M39851 26934
L39851 26690
L40001 26821
L40001 26765
L40020 26728
L40038 26709
L40076 26690
L40170 26690
L40207 26709
L40226 26728
L40245 26765
L40245 26878
L40226 26915
L40207 26934
" />
<g transform="rotate(-90 39066.9 42000)">
<text x="39066.9" y="42196.9"
textLength="845.426" font-size="524.934" lengthAdjust="spacingAndGlyphs"
text-anchor="middle" opacity="0">R2</text>
</g>
<path d="M39245 42065
L39057 42196
" />
<path d="M39245 42290
L38851 42290
L38851 42140
L38870 42103
L38888 42084
L38926 42065
L38982 42065
L39020 42084
L39038 42103
L39057 42140
L39057 42290
" />
<path d="M38888 41915
L38870 41896
L38851 41859
L38851 41765
L38870 41728
L38888 41709
L38926 41690
L38963 41690
L39020 41709
L39245 41934
L39245 41690
" />
<g transform="rotate(-90 43933.1 34000)">
<text x="43933.1" y="34196.9"
textLength="845.426" font-size="524.934" lengthAdjust="spacingAndGlyphs"
text-anchor="middle" opacity="0">R1</text>
</g>
<path d="M44111 34065
L43923 34196
" />
<path d="M44111 34290
L43717 34290
L43717 34140
L43736 34103
L43754 34084
L43792 34065
L43848 34065
L43886 34084
L43904 34103
L43923 34140
L43923 34290
" />
<path d="M44111 33690
L44111 33915
" />
<path d="M44111 33803
L43717 33803
L43773 33840
L43811 33878
L43829 33915
" />
<text x="66000" y="43515.7"
textLength="1239.13" font-size="524.934" lengthAdjust="spacingAndGlyphs"
text-anchor="middle" opacity="0">Q24</text>
<path d="M65775 43534
L65737 43515
L65700 43478
L65643 43422
L65606 43403
L65568 43403
" />
<path d="M65587 43497
L65550 43478
L65512 43440
L65493 43365
L65493 43234
L65512 43159
L65550 43122
L65587 43103
L65662 43103
L65700 43122
L65737 43159
L65756 43234
L65756 43365
L65737 43440
L65700 43478
L65662 43497
L65587 43497
" />
<path d="M65906 43140
L65925 43122
L65962 43103
L66056 43103
L66093 43122
L66112 43140
L66131 43178
L66131 43215
L66112 43272
L65887 43497
L66131 43497
" />
<path d="M66468 43234
L66468 43497
" />
<path d="M66374 43084
L66281 43365
L66524 43365
" />
<text x="67000" y="32878"
textLength="1239.13" font-size="524.934" lengthAdjust="spacingAndGlyphs"
text-anchor="middle" opacity="0">Q23</text>
<path d="M66775 32896
L66737 32877
L66700 32840
L66643 32784
L66606 32765
L66568 32765
" />
<path d="M66587 32859
L66550 32840
L66512 32802
L66493 32727
L66493 32596
L66512 32521
L66550 32484
L66587 32465
L66662 32465
L66700 32484
L66737 32521
L66756 32596
L66756 32727
L66737 32802
L66700 32840
L66662 32859
L66587 32859
" />
<path d="M66906 32502
L66925 32484
L66962 32465
L67056 32465
L67093 32484
L67112 32502
L67131 32540
L67131 32577
L67112 32634
L66887 32859
L67131 32859
" />
<path d="M67262 32465
L67506 32465
L67374 32615
L67431 32615
L67468 32634
L67487 32652
L67506 32690
L67506 32784
L67487 32821
L67468 32840
L67431 32859
L67318 32859
L67281 32840
L67262 32821
" />
<text x="67000" y="47598.4"
textLength="1239.13" font-size="524.934" lengthAdjust="spacingAndGlyphs"
text-anchor="middle" opacity="0">Q22</text>
<path d="M66775 47617
L66737 47598
L66700 47560
L66643 47504
L66606 47485
L66568 47485
" />
<path d="M66587 47579
L66550 47560
L66512 47523
L66493 47448
L66493 47317
L66512 47242
L66550 47204
L66587 47185
L66662 47185
L66700 47204
L66737 47242
L66756 47317
L66756 47448
L66737 47523
L66700 47560
L66662 47579
L66587 47579
" />
<path d="M66906 47223
L66925 47204
L66962 47185
L67056 47185
L67093 47204
L67112 47223
L67131 47260
L67131 47298
L67112 47354
L66887 47579
L67131 47579
" />
<path d="M67281 47223
L67299 47204
L67337 47185
L67431 47185
L67468 47204
L67487 47223
L67506 47260
L67506 47298
L67487 47354
L67262 47579
L67506 47579
" />
<text x="66000" y="28795.3"
textLength="1239.13" font-size="524.934" lengthAdjust="spacingAndGlyphs"
text-anchor="middle" opacity="0">Q21</text>
<path d="M65775 28814
L65737 28795
L65700 28757
L65643 28701
L65606 28682
L65568 28682
" />
<path d="M65587 28776
L65550 28757
L65512 28720
L65493 28645
L65493 28514
L65512 28439
L65550 28401
L65587 28382
L65662 28382
L65700 28401
L65737 28439
L65756 28514
L65756 28645
L65737 28720
L65700 28757
L65662 28776
L65587 28776
" />
<path d="M65906 28420
L65925 28401
L65962 28382
L66056 28382
L66093 28401
L66112 28420
L66131 28457
L66131 28495
L66112 28551
L65887 28776
L66131 28776
" />
<path d="M66506 28776
L66281 28776
" />
<path d="M66393 28776
L66393 28382
L66356 28439
L66318 28476
L66281 28495
" />
<text x="61000" y="43515.7"
textLength="1239.13" font-size="524.934" lengthAdjust="spacingAndGlyphs"
text-anchor="middle" opacity="0">Q20</text>
<path d="M60775 43534
L60737 43515
L60700 43478
L60643 43422
L60606 43403
L60568 43403
" />
<path d="M60587 43497
L60550 43478
L60512 43440
L60493 43365
L60493 43234
L60512 43159
L60550 43122
L60587 43103
L60662 43103
L60700 43122
L60737 43159
L60756 43234
L60756 43365
L60737 43440
L60700 43478
L60662 43497
L60587 43497
" />
<path d="M60906 43140
L60925 43122
L60962 43103
L61056 43103
L61093 43122
L61112 43140
L61131 43178
L61131 43215
L61112 43272
L60887 43497
L61131 43497
" />
<path d="M61374 43103
L61412 43103
L61449 43122
L61468 43140
L61487 43178
L61506 43253
L61506 43347
L61487 43422
L61468 43459
L61449 43478
L61412 43497
L61374 43497
L61337 43478
L61318 43459
L61299 43422
L61281 43347
L61281 43253
L61299 43178
L61318 43140
L61337 43122
L61374 43103
" />
<text x="62000" y="32878"
textLength="1239.13" font-size="524.934" lengthAdjust="spacingAndGlyphs"
text-anchor="middle" opacity="0">Q19</text>
<path d="M61775 32896
L61737 32877
L61700 32840
L61643 32784
L61606 32765
L61568 32765
" />
<path d="M61587 32859
L61550 32840
L61512 32802
L61493 32727
L61493 32596
L61512 32521
L61550 32484
L61587 32465
L61662 32465
L61700 32484
L61737 32521
L61756 32596
L61756 32727
L61737 32802
L61700 32840
L61662 32859
L61587 32859
" />
<path d="M62131 32859
L61906 32859
" />
<path d="M62018 32859
L62018 32465
L61981 32521
L61943 32559
L61906 32577
" />
<path d="M62318 32859
L62393 32859
L62431 32840
L62449 32821
L62487 32765
L62506 32690
L62506 32540
L62487 32502
L62468 32484
L62431 32465
L62356 32465
L62318 32484
L62299 32502
L62281 32540
L62281 32634
L62299 32671
L62318 32690
L62356 32709
L62431 32709
L62468 32690
L62487 32671
L62506 32634
" />
<text x="62000" y="47598.4"
textLength="1239.13" font-size="524.934" lengthAdjust="spacingAndGlyphs"
text-anchor="middle" opacity="0">Q18</text>
<path d="M61775 47617
L61737 47598
L61700 47560
L61643 47504
L61606 47485
L61568 47485
" />
<path d="M61587 47579
L61550 47560
L61512 47523
L61493 47448
L61493 47317
L61512 47242
L61550 47204
L61587 47185
L61662 47185
L61700 47204
L61737 47242
L61756 47317
L61756 47448
L61737 47523
L61700 47560
L61662 47579
L61587 47579
" />
<path d="M62131 47579
L61906 47579
" />
<path d="M62018 47579
L62018 47185
L61981 47242
L61943 47279
L61906 47298
" />
<path d="M62356 47354
L62318 47335
L62299 47317
L62281 47279
L62281 47260
L62299 47223
L62318 47204
L62356 47185
L62431 47185
L62468 47204
L62487 47223
L62506 47260
L62506 47279
L62487 47317
L62468 47335
L62431 47354
L62356 47354
L62318 47373
L62299 47392
L62281 47429
L62281 47504
L62299 47542
L62318 47560
L62356 47579
L62431 47579
L62468 47560
L62487 47542
L62506 47504
L62506 47429
L62487 47392
L62468 47373
L62431 47354
" />
<text x="61000" y="28795.3"
textLength="1239.13" font-size="524.934" lengthAdjust="spacingAndGlyphs"
text-anchor="middle" opacity="0">Q17</text>
<path d="M60775 28814
L60737 28795
L60700 28757
L60643 28701
L60606 28682
L60568 28682
" />
<path d="M60587 28776
L60550 28757
L60512 28720
L60493 28645
L60493 28514
L60512 28439
L60550 28401
L60587 28382
L60662 28382
L60700 28401
L60737 28439
L60756 28514
L60756 28645
L60737 28720
L60700 28757
L60662 28776
L60587 28776
" />
<path d="M61131 28776
L60906 28776
" />
<path d="M61018 28776
L61018 28382
L60981 28439
L60943 28476
L60906 28495
" />
<path d="M61262 28382
L61524 28382
L61356 28776
" />
<text x="56000" y="43515.7"
textLength="1239.13" font-size="524.934" lengthAdjust="spacingAndGlyphs"
text-anchor="middle" opacity="0">Q16</text>
<path d="M55775 43534
L55737 43515
L55700 43478
L55643 43422
L55606 43403
L55568 43403
" />
<path d="M55587 43497
L55550 43478
L55512 43440
L55493 43365
L55493 43234
L55512 43159
L55550 43122
L55587 43103
L55662 43103
L55700 43122
L55737 43159
L55756 43234
L55756 43365
L55737 43440
L55700 43478
L55662 43497
L55587 43497
" />
<path d="M56131 43497
L55906 43497
" />
<path d="M56018 43497
L56018 43103
L55981 43159
L55943 43197
L55906 43215
" />
<path d="M56468 43103
L56393 43103
L56356 43122
L56337 43140
L56299 43197
L56281 43272
L56281 43422
L56299 43459
L56318 43478
L56356 43497
L56431 43497
L56468 43478
L56487 43459
L56506 43422
L56506 43328
L56487 43290
L56468 43272
L56431 43253
L56356 43253
L56318 43272
L56299 43290
L56281 43328
" />
<text x="57000" y="47598.4"
textLength="1239.13" font-size="524.934" lengthAdjust="spacingAndGlyphs"
text-anchor="middle" opacity="0">Q14</text>
<path d="M56775 47617
L56737 47598
L56700 47560
L56643 47504
L56606 47485
L56568 47485
" />
<path d="M56587 47579
L56550 47560
L56512 47523
L56493 47448
L56493 47317
L56512 47242
L56550 47204
L56587 47185
L56662 47185
L56700 47204
L56737 47242
L56756 47317
L56756 47448
L56737 47523
L56700 47560
L56662 47579
L56587 47579
" />
<path d="M57131 47579
L56906 47579
" />
<path d="M57018 47579
L57018 47185
L56981 47242
L56943 47279
L56906 47298
" />
<path d="M57468 47317
L57468 47579
" />
<path d="M57374 47167
L57281 47448
L57524 47448
" />
<text x="56000" y="28795.3"
textLength="1239.13" font-size="524.934" lengthAdjust="spacingAndGlyphs"
text-anchor="middle" opacity="0">Q13</text>
<path d="M55775 28814
L55737 28795
L55700 28757
L55643 28701
L55606 28682
L55568 28682
" />
<path d="M55587 28776
L55550 28757
L55512 28720
L55493 28645
L55493 28514
L55512 28439
L55550 28401
L55587 28382
L55662 28382
L55700 28401
L55737 28439
L55756 28514
L55756 28645
L55737 28720
L55700 28757
L55662 28776
L55587 28776
" />
<path d="M56131 28776
L55906 28776
" />
<path d="M56018 28776
L56018 28382
L55981 28439
L55943 28476
L55906 28495
" />
<path d="M56262 28382
L56506 28382
L56374 28532
L56431 28532
L56468 28551
L56487 28570
L56506 28607
L56506 28701
L56487 28739
L56468 28757
L56431 28776
L56318 28776
L56281 28757
L56262 28739
" />
<text x="51000" y="43515.7"
textLength="1239.13" font-size="524.934" lengthAdjust="spacingAndGlyphs"
text-anchor="middle" opacity="0">Q12</text>
<path d="M50775 43534
L50737 43515
L50700 43478
L50643 43422
L50606 43403
L50568 43403
" />
<path d="M50587 43497
L50550 43478
L50512 43440
L50493 43365
L50493 43234
L50512 43159
L50550 43122
L50587 43103
L50662 43103
L50700 43122
L50737 43159
L50756 43234
L50756 43365
L50737 43440
L50700 43478
L50662 43497
L50587 43497
" />
<path d="M51131 43497
L50906 43497
" />
<path d="M51018 43497
L51018 43103
L50981 43159
L50943 43197
L50906 43215
" />
<path d="M51281 43140
L51299 43122
L51337 43103
L51431 43103
L51468 43122
L51487 43140
L51506 43178
L51506 43215
L51487 43272
L51262 43497
L51506 43497
" />
<text x="52000" y="32878"
textLength="1239.13" font-size="524.934" lengthAdjust="spacingAndGlyphs"
text-anchor="middle" opacity="0">Q11</text>
<path d="M51775 32896
L51737 32877
L51700 32840
L51643 32784
L51606 32765
L51568 32765
" />
<path d="M51587 32859
L51550 32840
L51512 32802
L51493 32727
L51493 32596
L51512 32521
L51550 32484
L51587 32465
L51662 32465
L51700 32484
L51737 32521
L51756 32596
L51756 32727
L51737 32802
L51700 32840
L51662 32859
L51587 32859
" />
<path d="M52131 32859
L51906 32859
" />
<path d="M52018 32859
L52018 32465
L51981 32521
L51943 32559
L51906 32577
" />
<path d="M52506 32859
L52281 32859
" />
<path d="M52393 32859
L52393 32465
L52356 32521
L52318 32559
L52281 32577
" />
<text x="52000" y="47598.4"
textLength="1239.13" font-size="524.934" lengthAdjust="spacingAndGlyphs"
text-anchor="middle" opacity="0">Q10</text>
<path d="M51775 47617
L51737 47598
L51700 47560
L51643 47504
L51606 47485
L51568 47485
" />
<path d="M51587 47579
L51550 47560
L51512 47523
L51493 47448
L51493 47317
L51512 47242
L51550 47204
L51587 47185
L51662 47185
L51700 47204
L51737 47242
L51756 47317
L51756 47448
L51737 47523
L51700 47560
L51662 47579
L51587 47579
" />
<path d="M52131 47579
L51906 47579
" />
<path d="M52018 47579
L52018 47185
L51981 47242
L51943 47279
L51906 47298
" />
<path d="M52374 47185
L52412 47185
L52449 47204
L52468 47223
L52487 47260
L52506 47335
L52506 47429
L52487 47504
L52468 47542
L52449 47560
L52412 47579
L52374 47579
L52337 47560
L52318 47542
L52299 47504
L52281 47429
L52281 47335
L52299 47260
L52318 47223
L52337 47204
L52374 47185
" />
<text x="51000" y="28795.3"
textLength="864.173" font-size="524.934" lengthAdjust="spacingAndGlyphs"
text-anchor="middle" opacity="0">Q9</text>
<path d="M50962 28814
L50925 28795
L50887 28757
L50831 28701
L50793 28682
L50756 28682
" />
<path d="M50775 28776
L50737 28757
L50700 28720
L50681 28645
L50681 28514
L50700 28439
L50737 28401
L50775 28382
L50850 28382
L50887 28401
L50925 28439
L50943 28514
L50943 28645
L50925 28720
L50887 28757
L50850 28776
L50775 28776
" />
<path d="M51131 28776
L51206 28776
L51243 28757
L51262 28739
L51299 28682
L51318 28607
L51318 28457
L51299 28420
L51281 28401
L51243 28382
L51168 28382
L51131 28401
L51112 28420
L51093 28457
L51093 28551
L51112 28589
L51131 28607
L51168 28626
L51243 28626
L51281 28607
L51299 28589
L51318 28551
" />
<text x="46000" y="43515.7"
textLength="864.173" font-size="524.934" lengthAdjust="spacingAndGlyphs"
text-anchor="middle" opacity="0">Q8</text>
<path d="M45962 43534
L45925 43515
L45887 43478
L45831 43422
L45793 43403
L45756 43403
" />
<path d="M45775 43497
L45737 43478
L45700 43440
L45681 43365
L45681 43234
L45700 43159
L45737 43122
L45775 43103
L45850 43103
L45887 43122
L45925 43159
L45943 43234
L45943 43365
L45925 43440
L45887 43478
L45850 43497
L45775 43497
" />
<path d="M46168 43272
L46131 43253
L46112 43234
L46093 43197
L46093 43178
L46112 43140
L46131 43122
L46168 43103
L46243 43103
L46281 43122
L46299 43140
L46318 43178
L46318 43197
L46299 43234
L46281 43253
L46243 43272
L46168 43272
L46131 43290
L46112 43309
L46093 43347
L46093 43422
L46112 43459
L46131 43478
L46168 43497
L46243 43497
L46281 43478
L46299 43459
L46318 43422
L46318 43347
L46299 43309
L46281 43290
L46243 43272
" />
<text x="47000" y="32878"
textLength="864.173" font-size="524.934" lengthAdjust="spacingAndGlyphs"
text-anchor="middle" opacity="0">Q7</text>
<path d="M46962 32896
L46925 32877
L46887 32840
L46831 32784
L46793 32765
L46756 32765
" />
<path d="M46775 32859
L46737 32840
L46700 32802
L46681 32727
L46681 32596
L46700 32521
L46737 32484
L46775 32465
L46850 32465
L46887 32484
L46925 32521
L46943 32596
L46943 32727
L46925 32802
L46887 32840
L46850 32859
L46775 32859
" />
<path d="M47074 32465
L47337 32465
L47168 32859
" />
<text x="47000" y="47598.4"
textLength="864.173" font-size="524.934" lengthAdjust="spacingAndGlyphs"
text-anchor="middle" opacity="0">Q6</text>
<path d="M46962 47617
L46925 47598
L46887 47560
L46831 47504
L46793 47485
L46756 47485
" />
<path d="M46775 47579
L46737 47560
L46700 47523
L46681 47448
L46681 47317
L46700 47242
L46737 47204
L46775 47185
L46850 47185
L46887 47204
L46925 47242
L46943 47317
L46943 47448
L46925 47523
L46887 47560
L46850 47579
L46775 47579
" />
<path d="M47281 47185
L47206 47185
L47168 47204
L47149 47223
L47112 47279
L47093 47354
L47093 47504
L47112 47542
L47131 47560
L47168 47579
L47243 47579
L47281 47560
L47299 47542
L47318 47504
L47318 47410
L47299 47373
L47281 47354
L47243 47335
L47168 47335
L47131 47354
L47112 47373
L47093 47410
" />
<text x="46000" y="28795.3"
textLength="864.173" font-size="524.934" lengthAdjust="spacingAndGlyphs"
text-anchor="middle" opacity="0">Q5</text>
<path d="M45962 28814
L45925 28795
L45887 28757
L45831 28701
L45793 28682
L45756 28682
" />
<path d="M45775 28776
L45737 28757
L45700 28720
L45681 28645
L45681 28514
L45700 28439
L45737 28401
L45775 28382
L45850 28382
L45887 28401
L45925 28439
L45943 28514
L45943 28645
L45925 28720
L45887 28757
L45850 28776
L45775 28776
" />
<path d="M46299 28382
L46112 28382
L46093 28570
L46112 28551
L46149 28532
L46243 28532
L46281 28551
L46299 28570
L46318 28607
L46318 28701
L46299 28739
L46281 28757
L46243 28776
L46149 28776
L46112 28757
L46093 28739
" />
<text x="41000" y="43515.7"
textLength="864.173" font-size="524.934" lengthAdjust="spacingAndGlyphs"
text-anchor="middle" opacity="0">Q4</text>
<path d="M40962 43534
L40925 43515
L40887 43478
L40831 43422
L40793 43403
L40756 43403
" />
<path d="M40775 43497
L40737 43478
L40700 43440
L40681 43365
L40681 43234
L40700 43159
L40737 43122
L40775 43103
L40850 43103
L40887 43122
L40925 43159
L40943 43234
L40943 43365
L40925 43440
L40887 43478
L40850 43497
L40775 43497
" />
<path d="M41281 43234
L41281 43497
" />
<path d="M41187 43084
L41093 43365
L41337 43365
" />
<text x="42000" y="32878"
textLength="864.173" font-size="524.934" lengthAdjust="spacingAndGlyphs"
text-anchor="middle" opacity="0">Q3</text>
<path d="M41962 32896
L41925 32877
L41887 32840
L41831 32784
L41793 32765
L41756 32765
" />
<path d="M41775 32859
L41737 32840
L41700 32802
L41681 32727
L41681 32596
L41700 32521
L41737 32484
L41775 32465
L41850 32465
L41887 32484
L41925 32521
L41943 32596
L41943 32727
L41925 32802
L41887 32840
L41850 32859
L41775 32859
" />
<path d="M42074 32465
L42318 32465
L42187 32615
L42243 32615
L42281 32634
L42299 32652
L42318 32690
L42318 32784
L42299 32821
L42281 32840
L42243 32859
L42131 32859
L42093 32840
L42074 32821
" />
<text x="42000" y="47598.4"
textLength="864.173" font-size="524.934" lengthAdjust="spacingAndGlyphs"
text-anchor="middle" opacity="0">Q2</text>
<path d="M41962 47617
L41925 47598
L41887 47560
L41831 47504
L41793 47485
L41756 47485
" />
<path d="M41775 47579
L41737 47560
L41700 47523
L41681 47448
L41681 47317
L41700 47242
L41737 47204
L41775 47185
L41850 47185
L41887 47204
L41925 47242
L41943 47317
L41943 47448
L41925 47523
L41887 47560
L41850 47579
L41775 47579
" />
<path d="M42093 47223
L42112 47204
L42149 47185
L42243 47185
L42281 47204
L42299 47223
L42318 47260
L42318 47298
L42299 47354
L42074 47579
L42318 47579
" />
<text x="41000" y="28795.3"
textLength="864.173" font-size="524.934" lengthAdjust="spacingAndGlyphs"
text-anchor="middle" opacity="0">Q1</text>
<path d="M40962 28814
L40925 28795
L40887 28757
L40831 28701
L40793 28682
L40756 28682
" />
<path d="M40775 28776
L40737 28757
L40700 28720
L40681 28645
L40681 28514
L40700 28439
L40737 28401
L40775 28382
L40850 28382
L40887 28401
L40925 28439
L40943 28514
L40943 28645
L40925 28720
L40887 28757
L40850 28776
L40775 28776
" />
<path d="M41318 28776
L41093 28776
" />
<path d="M41206 28776
L41206 28382
L41168 28439
L41131 28476
L41093 28495
" />
<text x="70000" y="44106.3"
textLength="751.687" font-size="524.934" lengthAdjust="spacingAndGlyphs"
text-anchor="middle" opacity="0">J2</text>
<path d="M69868 43693
L69868 43975
L69850 44031
L69812 44068
L69756 44087
L69718 44087
" />
<path d="M70037 43731
L70056 43712
L70093 43693
L70187 43693
L70224 43712
L70243 43731
L70262 43768
L70262 43806
L70243 43862
L70018 44087
L70262 44087
" />
<g transform="rotate(-90 72503.9 41000)">
<text x="72503.9" y="41196.9"
textLength="751.687" font-size="524.934" lengthAdjust="spacingAndGlyphs"
text-anchor="middle" opacity="0">J1</text>
</g>
<path d="M72288 41131
L72569 41131
L72625 41149
L72663 41187
L72682 41243
L72682 41281
" />
<path d="M72682 40737
L72682 40962
" />
<path d="M72682 40850
L72288 40850
L72344 40887
L72382 40925
L72400 40962
" />
<g >
</g>
</g> 
</svg>
